# xmcd
#
# Track frame offsets:
#	150
#	17587
#	37755
#	51127
#	67265
#	82032
#	99865
#	113837
#	126892
#	142780
#	162577
#	178360
#	191122
#	209690
#
# Disc length: 2916 seconds
#
# Revision: 1
# Processed by: cddbd v1.5.2PL0 Copyright (c) Steve Scherf et al.
# Submitted via: EZCDAudioConverter 8.0.2.1
#
DISCID=c80b620e
DTITLE=DALLAS COMPANY - CLIMA DE RODEIO [CD DAL002) DUPLICASOM IND. E COM. LTD
DTITLE=A
DYEAR=2002
DGENRE=Country
TTITLE0=CLIMA DE RODEIO (BY GILMAR SINISTRO)
TTITLE1=AGORA VOU MUDAR (IF YOU'RE NOT IN IT FOR LOVE) (BY GILMAR SINISTRO)
TTITLE2=COMO DIRIA DYLAN (PART. ESP. ZÉ GERALDO) (BY GILMAR SINISTRO)
TTITLE3=SAUDADE (BY GILMAR SINISTRO)
TTITLE4=HERÓI DE RODEIO (BY GILMAR SINISTRO)
TTITLE5=SOLITÁRIO DO SERTÃO (BY GILMAR SINISTRO)
TTITLE6=AMEI VOCÊ (AMAZING GRACE) (BY GILMAR SINISTRO)
TTITLE7=BLACK MU (INSTRUMENTAL) (BY GILMAR SINISTRO)
TTITLE8=QUANDO EU TIVER VOCÊ (WHEN A WOMAN LOVES A MAN) (BY GILMAR SINISTRO)
TTITLE9=UM SENTIMENTO (BY GILMAR SINISTRO)
TTITLE10=CARA DE RESSACA (BY GILMAR SINISTRO)
TTITLE11=I AM A GOOD COWBOY (BY GILMAR SINISTRO)
TTITLE12=CLIMA DE RODEIO (REMIX RENNAN PENEDO) (BY GILMAR SINISTRO)
TTITLE13=ORAÇÃO DO COWBOY (BY GILMAR SINISTRO)
EXTD=
EXTT0=
EXTT1=
EXTT2=
EXTT3=
EXTT4=
EXTT5=
EXTT6=
EXTT7=
EXTT8=
EXTT9=
EXTT10=
EXTT11=
EXTT12=
EXTT13=
PLAYORDER=
